<?xml version="1.0" encoding="UTF-8"?>
<svg width="300" height="300" viewBox="0 0 1000.0009 999.99996" xmlns="http://www.w3.org/2000/svg" style="fill: white">
 <path d="m511.93 23.108 13.118 0.89441c26.582 1.1568 52.687 4.5317 78.708 10.28 173.43 38.293 307.29 166.32 355.88 336.8 9.3853 32.938 13.917 62.537 16.302 96.596l1.0852 11.925v39.354l-1.0852 14.311c-2.3493 34.178-7.9066 67.176-17.316 100.17-43.063 151.06-158.86 269.56-307.16 319.6-34.262 11.556-73.723 19.033-109.71 22.611h-11.925l-14.311 1.2402h-35.776l-25.043-2.1942c-40.177-4.2932-68.75-9.5881-107.33-22.456-43.158-14.382-89.787-37.696-126.41-64.648-45.829-33.737-86.018-74.343-117.64-121.78-36.778-55.167-63.491-121.62-73.83-187.23l-2.0512-19.081-3.351-33.391-1.0852-13.118c-0.39354-82.679 14.74-155.83 51.9-230.16 56.896-113.78 162.16-200.86 283.21-238.48 22.634-7.0241 49.264-13.297 72.745-16.386l34.584-3.7088 13.118-1.1448h33.391zm419.78 460.07-5.271-52.472c-8.4432-54.356-28.74-107.96-56.98-155.03-24.161-40.272-55.74-76.549-91.587-106.83-52.949-44.72-117.3-75.536-184.84-90.442-16.851-3.7207-47.547-8.8367-64.397-9.0395l-20.273-1.1925c-74.939-0.87056-149.86 17.149-215.85 52.842-53.641 29.003-100.39 70.503-137.29 118.88-58.876 77.217-88.034 174.12-86.913 270.71l1.0852 11.925c2.1466 31.352 6.0581 62.704 14.764 93.018 8.0258 27.941 16.123 50.23 29.17 76.323 4.3766 8.7413 9.8146 22.336 16.994 28.621l7.7277-23.851 11.186-35.776 15.384-40.546 5.593-16.696 11.019-23.851c3.673-8.2882 6.0343-16.266 11.46-23.851 8.0735-11.293 19.2-21.621 30.648-29.408l19.76-12.283c3.2556-2.9336 2.9575-7.8589 4.1381-11.973 1.4191-4.9491 5.7361-15.956 8.2405-20.273 2.8502-4.9133 19.152-23.207 23.97-28.621 3.029-3.4107 8.9322-9.2064 10.518-13.225 2.0989-5.3068 5.605-15.813 4.5913-21.358-1.6457-9.0753-15.801-23.29-22.324-29.814-11.46-11.46-11.079-11.138-18.329-25.043-2.7786-5.3307-4.3289-6.8929-6.1893-13.118-1.2641-4.2097-3.8281-17.268-3.8281-21.466v-9.5404l-1.4668-20.273c-0.0358-22.301 1.4907-44.565 12.963-64.397 4.2693-7.358 23.612-28.728 30.076-33.51l14.203-8.2882 31.006-24.006c8.0974-5.0206 14.155-6.4636 22.527-9.8862 6.6663-2.7071 4.1978-8.3001 7.4534-13.619 2.5878-4.2335 5.9985-4.7463 10.566-4.8775 12.963-0.38162 23.112 3.7804 25.043 3.7446 5.0444-0.0954 5.8792-4.317 13.118-4.8894 10.506-0.83479 9.8385 3.4703 15.765 9.8027 14.191 15.193 15.598 28.18 20.452 47.368 2.2658 8.9202 6.3205 21.406 12.295 28.418 5.4619 6.4159 15.396 13.046 19.51 19.283 6.8571 10.399 5.8792 20.118 12.343 27.047 5.3188 5.7004 28.693 16.684 33.188 25.425 3.2437 6.3324-4.8418 12.832-5.6407 19.081-0.7513 6.0223 4.639 10.077 5.4022 19.081 0.51279 9.3257-3.6253 19.462 0 28.573 2.6117 5.927 7.3818 6.2847 10.888 11.997 3.3391 5.4618 1.8723 17.089 4.4601 23.827 2.4924 6.4994 7.4892 7.4415 7.0599 15.503-0.78709 14.99-8.4194 19.295-22.432 21.347h-13.118l-9.5404 1.9677c-9.9935 2.0035-15.813 2.3255-22.396 11.377-7.2268 9.9458-6.6067 30.911 1.4191 40.284 3.0529 3.5538 8.6102 5.9269 12.629 8.6102 8.2166 5.4738 14.418 12.796 23.851 16.445 18.95 7.3341 51.876 2.2897 72.745 2.5282 13.523 0.16696 19.224 5.7004 31.006 10.9l14.311 5.6169 19.081 16.517 17.781 13.834 12.14 13.905 17.447 15.551c11.091 10.864 15.42 18.806 28.955 27.5 17.888 11.496 20.381 12.045 39.354 19.236 3.0291 1.1448 12.009 5.0683 14.788 3.2199 2.3493-1.5622 2.6713-11.413 2.4924-14.179l-0.78707-16.696-2.087-14.311v-13.118l-4.6628-32.199c-2.5401-26.403-6.1178-55.823-14.322-81.093-2.9933-9.2303-9.0156-28.824-15.944-35.144-6.6186-6.0462-25.675-14.955-34.333-18.926-6.881-3.1722-7.1672-4.5078-15.503-6.4636l-31.006-5.8912c-12.796-5.4618-21.025-24.662-24.34-28.478-2.6594-3.0291-8.2524-8.9083-12.629-7.4653-4.4243 1.4788-6.5113 7.4295-15.503 6.7379-6.1893-0.46508-16.648-4.4601-21.251-8.5863-11.377-10.184-14.549-30.446-4.1739-42.24 5.7004-6.4874 16.099-9.1468 24.232-6.2251 5.4618 1.9558 7.835 5.1399 14.311 7.3103 8.7652 2.9336 16.541 2.2062 25.532 1.753 4.806 0.13119 16.231 2.0154 19.653 0 5.6049-3.9473 5.6526-13.285 14.442-13.845 4.1023-0.26237 8.7413 4.3051 11.114 7.2864 1.92 2.4209 3.0052 5.8912 6.8333 4.484 3.4226-1.2522 6.5471-6.237 10.673-6.4278 3.7207-0.17888 12.414 6.8929 16.696 8.7533 6.714 2.8979 13.464 0.21466 19.081 2.3374 5.593 2.0989 12.295 10.447 17.888 12.546l17.888 1.8365c23.41 4.3886 37.994 5.0445 60.82 14.537 12.689 5.2711 19.105 7.6084 27.989 19.093 20.714 26.761 26.665 63.813 36.385 95.403 3.5896 11.675 10.351 33.546 19.105 41.739v-33.391zm-21.859 153.84c9.8743-29.527 17.304-61.941 19.582-93.018l1.0733-10.733c0.22659-10.375-1.0256-9.5642-6.0462-17.888l-5.5692-10.733c-7.7158-15.42-8.9321-21.967-13.523-38.161-5.4976-19.415-11.997-50.039-22.968-66.58-2.6355-3.9592-5.4738-5.5453-8.5148-8.8964-5.1279-5.6407-10.924-16.386-18.496-18.747-2.7548-0.87056-8.634-0.0238-11.925 0-16.004 0.19081-25.282-2.9336-41.739 0 0.28622 11.568 10.077 30.147 14.203 41.751l4.5078 16.696 1.9796 11.925 3.7088 9.5404 7.191 22.658 14.239 48.894 11.723 39.354 2.9337 11.925 18.186 56.05 13.154 45.317c4.9014-6.3443 13.404-30.684 16.302-39.354zm-139.13 124.13-29.814-10.685-26.236-12.021c-3.1364-1.8007-8.4313-6.3443-11.902-6.3443-4.5794 0.0119-6.8571 5.283-8.7294 8.6698-3.4464 6.2012-7.5965 15.253-15.145 17.006-8.9441 2.075-23.231-11.055-32.199-12.963-9.8742-2.087-17.685 5.5811-26.236 7.8827l-1.1925 22.658v27.428l-1.1926 20.273-1.1925 25.043v27.429l3.5776 38.161c11.985-0.58435 39.473-11.937 51.279-17.03 42.657-18.413 82.441-43.468 116.87-74.713 10.494-9.5284 34.274-31.328 40.546-43.015-20.249-3.8161-39.139-10.84-58.435-17.781z" stroke="#000" stroke-width="1.1925"/>
</svg>
